<svg width="24" height="24" viewBox="0 0 24 24" fill="none" xmlns="http://www.w3.org/2000/svg">
<g clip-path="url(#clip0_699_14915)">
<path d="M8.73081 2.88281H5.24681C3.94121 2.88281 2.88281 3.94121 2.88281 5.24681V8.73081C2.88281 10.0364 3.94121 11.0948 5.24681 11.0948H8.73081C10.0364 11.0948 11.0948 10.0364 11.0948 8.73081V5.24681C11.0948 3.94121 10.0364 2.88281 8.73081 2.88281Z" fill="currentColor"/>
<path d="M8.73081 12.9043H5.24681C3.94121 12.9043 2.88281 13.9627 2.88281 15.2683V18.7523C2.88281 20.0579 3.94121 21.1163 5.24681 21.1163H8.73081C10.0364 21.1163 11.0948 20.0579 11.0948 18.7523V15.2683C11.0948 13.9627 10.0364 12.9043 8.73081 12.9043Z" fill="currentColor"/>
<path d="M18.7528 2.88281H15.2688C13.9632 2.88281 12.9048 3.94121 12.9048 5.24681V8.73081C12.9048 10.0364 13.9632 11.0948 15.2688 11.0948H18.7528C20.0584 11.0948 21.1168 10.0364 21.1168 8.73081V5.24681C21.1168 3.94121 20.0584 2.88281 18.7528 2.88281Z" fill="currentColor"/>
<path d="M18.7528 12.9043H15.2688C13.9632 12.9043 12.9048 13.9627 12.9048 15.2683V18.7523C12.9048 20.0579 13.9632 21.1163 15.2688 21.1163H18.7528C20.0584 21.1163 21.1168 20.0579 21.1168 18.7523V15.2683C21.1168 13.9627 20.0584 12.9043 18.7528 12.9043Z" fill="currentColor"/>
</g>
<defs>
<clipPath id="clip0_699_14915">
<rect width="24" height="24" fill="white"/>
</clipPath>
</defs>
</svg>
