<svg width="24" height="24" viewBox="0 0 24 24" fill="none" xmlns="http://www.w3.org/2000/svg">
<path fill-rule="evenodd" clip-rule="evenodd" d="M9 3C9 2.44772 9.44772 2 10 2H14C14.5523 2 15 2.44772 15 3V4H19C19.5523 4 20 4.44772 20 5C20 5.55228 19.5523 6 19 6H5C4.44772 6 4 5.55228 4 5C4 4.44772 4.44772 4 5 4H9V3Z" fill="currentcolor"/>
<path fill-rule="evenodd" clip-rule="evenodd" d="M6 8C6.55228 8 7 8.44772 7 9V19C7 19.5523 7.44772 20 8 20H16C16.5523 20 17 19.5523 17 19V9C17 8.44772 17.4477 8 18 8C18.5523 8 19 8.44772 19 9V19C19 20.6569 17.6569 22 16 22H8C6.34315 22 5 20.6569 5 19V9C5 8.44772 5.44772 8 6 8Z" fill="currentcolor"/>
<path fill-rule="evenodd" clip-rule="evenodd" d="M10 10C10.5523 10 11 10.4477 11 11V17C11 17.5523 10.5523 18 10 18C9.44772 18 9 17.5523 9 17V11C9 10.4477 9.44772 10 10 10Z" fill="currentcolor"/>
<path fill-rule="evenodd" clip-rule="evenodd" d="M14 10C14.5523 10 15 10.4477 15 11V17C15 17.5523 14.5523 18 14 18C13.4477 18 13 17.5523 13 17V11C13 10.4477 13.4477 10 14 10Z" fill="currentcolor"/>
</svg>
