<svg xmlns="http://www.w3.org/2000/svg" width="140" height="151" fill="none"><rect width="140" height="151" fill="#fff" rx="8"/><path fill="#20A234" fill-opacity=".9" d="M77.7 51.7c10.9.2 32-6.1 29.6-32.5-15.7-.3-43.6 5.7-29.6 32.5m-14.1 6.5c4.9-11.5 6.1-34-27.9-32-1.2 11.3 2.5 33.5 27.9 32a89 89 0 0 0-5.7-10q-.5-.1-.8-1l-.3-.7 1.1 1.7a89 89 0 0 1 5.7 10m22.2 10.5c4.3-10 17-25.1 33-5.5-4.5 8.8-17.4 22.3-33 5.5m-30.5 3.6c-4.7-9-18-21-34 3.4 8.1 7 26.4 15.9 34-3.4a46 46 0 0 0-10-1.4h-.8.7q5.5.2 10 1.4"/><path fill="#7B4A2B" d="M48.8 96.4a103 103 0 0 0 22.5 2.3h.5q.2-4.4 0-8.5c-11.1 0-20 4.2-23 6.2"/><path fill="#7B4A2B" d="M91.2 96.4c-3.3-4.6-14.3-6-19.4-6.2q.2 4.2 0 8.5a100 100 0 0 0 19.4-2.3"/><path fill="#726552" d="M48.8 124.7c4.5 9.5 36.5 9.5 41 0s10.8-33.5 10.8-33.5c-.8 2.4-4.6 4-9.4 5.2a100 100 0 0 1-19.4 2.3h-.6a103 103 0 0 1-22.5-2.3c-4-1-7-2.4-7.5-4.4.6 4.1 3.5 24.2 7.5 32.7"/><path fill="#A28C6D" d="m100.6 91.2.1-1c0-6.4-19.7-9-29.9-9.5q.8 4.5 1 9.5c5.1.2 16.1 1.6 19.4 6.2 4.8-1.1 8.6-2.8 9.4-5.2"/><path fill="#A28C6D" d="M70.5 80.7c-8.7.3-26.8 2.7-29.2 9.5l-.2 1v.8c.7 2 3.6 3.4 7.7 4.4 3-2 11.9-6.2 23-6.2a78 78 0 0 0-1-9.5z"/><path stroke="#000" stroke-linecap="round" stroke-width="2.5" d="M47.8 35.7c2.5 2.4 5.8 6 9 10.8m15 52.2v0m-1.3-19.5a45 45 0 0 0-15.2-6.9m15.2 6.9c2.6-2.7 8-7 15.3-10.5M70.5 79.2a60 60 0 0 1 7.2-27.5m-7.2 27.5c-1.4-7.8-4-14.9-7-21m7 21 .3 1.5m24.4-52q-6.5 6-11 12.3m23 22.2q-6.3.3-12 2m-59.4 6.5a41 41 0 0 1 8.7-.8m10.7 1.4c-4.6-9-18-21-34 3.4 8.2 7 26.5 15.9 34-3.4Zm0 0a46 46 0 0 0-10-1.4m40.6-2.2c4.3-10 17-25.1 33-5.5-4.5 8.8-17.4 22.3-33 5.5Zm0 0a59 59 0 0 1 9.5-3.6M77.7 51.7c10.9.2 32-6.1 29.6-32.5-15.7-.3-43.6 5.7-29.6 32.5Zm0 0A79 79 0 0 1 84.2 41M63.7 58.2c4.9-11.5 6.1-34-27.9-32-1.2 11.3 2.5 33.5 27.9 32Zm0 0a89 89 0 0 0-5.7-10m0 0q-.5-.1-.8-1m.8 1V48m0 .2V48m0-8.3q-1.8 5-1 6.8m-9.2-.8c2.4-.3 7-.3 9.4 1.5m41.7 14c-.4 1-1.5 3.3-3.5 4m0 0c2.4.3 5.3 2.8 6.5 4M84.3 41c2-1.3 7-3.8 11-3.8m-11 3.8c1.4-2.1.9-6 .5-7.8m-43 35.5c.2.7 1.2 2 2.7 2.2m.7 0h-.1m.1 0h-.7m.7 0h-.1m-4.9 6.3c.9-2 3-6 4.9-6.3m-4 20.3.1-1c2.4-6.8 20.6-9.2 29.3-9.5h.3M41.1 91.2v.8m0-.8v.8m30.6 6.7a100 100 0 0 0 19.5-2.3c4.8-1.1 8.6-2.8 9.4-5.2l.1-1c0-6.4-19.7-9-29.9-9.5m29.8 10.5s-6.4 24-10.9 33.5-36.5 9.5-41 0c-4-8.5-7-28.6-7.5-32.7m0 0c.6 2 3.5 3.4 7.5 4.4a103 103 0 0 0 22.5 2.3h.5m-23-2.3c3.1-2 12-6.2 23.1-6.2m0 0c5.1.2 16.1 1.6 19.4 6.2m-19.4-6.2q.2 4.2 0 8.5m0-8.5a78 78 0 0 0-1-9.5M57.1 47.2l-.3-.7m.3.7.7.8m-1-1.5 1 1.5M45.1 71h-.6"/></svg>