<svg xmlns="http://www.w3.org/2000/svg" width="315" height="350" fill="none"><g clip-path="url(#a)"><g filter="url(#b)" transform="matrix(.75 0 0 .75 39.375 47.375)"><circle cx="157.5" cy="189.5" r="129.5" fill="url(#c)"/></g><path fill="#252525" d="M164.052 125.286h-12.31s-6.134.887-8.462 3.196-3.073 7.351-3.073 7.351l34.614.319s-.208-5.299-2.311-7.67c-2.103-2.372-8.458-3.196-8.458-3.196M157.895 121.131c1.923 0 3.192.262 4.615.959 1.682.823 1.542 3.196 1.542 3.196h-12.31s-.057-2.339 1.538-3.196c1.387-.746 2.692-.959 4.615-.959"/><path stroke="#000" stroke-width="3" d="M164.052 125.286s.14-2.373-1.542-3.196c-1.423-.697-2.692-.959-4.615-.959m6.157 4.155h-12.31m12.31 0s6.355.824 8.458 3.196c2.103 2.371 2.311 7.67 2.311 7.67m-16.926-15.021c-.004-.639 0-121.131 0-121.131m0 121.131c-1.923 0-3.228.213-4.615.959-1.595.857-1.538 3.196-1.538 3.196m0 0s-6.134.887-8.462 3.196-3.073 7.351-3.073 7.351m0 0 34.614.319m-34.614-.319q-.001 0-.148.073m34.762.246.121.069"/><path fill="url(#d)" d="M174.424 136.222s23.076 15.384 23.076 42.306-19.058 36.151-39.617 36.152c-20.56.001-40.383-6.153-40.383-36.152s22.31-42.69 22.31-42.69z"/><path stroke="#000" stroke-width="3" d="M174.424 136.222s23.076 15.384 23.076 42.306-19.058 36.151-39.617 36.152c-20.56.001-40.383-6.153-40.383-36.152s22.31-42.69 22.31-42.69m34.614.384s-.003-.1-.013-.282m.013.282-34.614-.384m0 0s.017-.139.054-.385M181.729 209.137v37.69"/><circle cx="181.729" cy="253.219" r="5.429" stroke="#000" stroke-width="3.463"/></g><defs><radialGradient id="c" cx="0" cy="0" r="1" gradientTransform="matrix(-.178 156.322 -156.321 -.45416 158.178 190.178)" gradientUnits="userSpaceOnUse"><stop offset=".787" stop-color="#252525" stop-opacity=".8"/><stop offset="1" stop-color="#252525" stop-opacity="0"/></radialGradient><linearGradient id="d" x1="157.5" x2="157.5" y1="135.453" y2="214.68" gradientUnits="userSpaceOnUse"><stop stop-color="#E9E9E9"/><stop offset="1" stop-color="#252525"/></linearGradient><clipPath id="a"><path fill="#fff" d="M0 0h315v350H0z"/></clipPath><filter id="b" width="423.03" height="423.03" x="-54.015" y="-22.015" color-interpolation-filters="sRGB" filterUnits="userSpaceOnUse"><feFlood flood-opacity="0" result="BackgroundImageFix"/><feBlend in="SourceGraphic" in2="BackgroundImageFix" result="shape"/><feGaussianBlur result="effect1_foregroundBlur_1454_10525" stdDeviation="41.008"/></filter></defs></svg>