<svg width="315" height="350" viewBox="0 0 315 350" fill="none" xmlns="http://www.w3.org/2000/svg">
<g clip-path="url(#clip0_1454_9026)">
<rect width="315" height="350" fill="#F3F3F3"/>
<g filter="url(#filter0_f_1454_9026)">
<circle cx="157.5" cy="189.5" r="129.5" fill="url(#paint0_radial_1454_9026)"/>
</g>
<path d="M164.052 125.286H151.742C151.742 125.286 145.608 126.173 143.28 128.482C140.952 130.791 140.207 135.833 140.207 135.833L174.821 136.152C174.821 136.152 174.613 130.853 172.51 128.482C170.407 126.11 164.052 125.286 164.052 125.286Z" fill="#252525"/>
<path d="M157.895 121.131C159.818 121.131 161.087 121.393 162.51 122.09C164.192 122.913 164.052 125.286 164.052 125.286H151.742C151.742 125.286 151.685 122.947 153.28 122.09C154.667 121.344 155.972 121.131 157.895 121.131Z" fill="#252525"/>
<path d="M164.052 125.286C164.052 125.286 164.192 122.913 162.51 122.09C161.087 121.393 159.818 121.131 157.895 121.131M164.052 125.286H151.742M164.052 125.286C164.052 125.286 170.407 126.11 172.51 128.482C174.613 130.853 174.821 136.152 174.821 136.152M157.895 121.131C157.891 120.492 157.895 0 157.895 0M157.895 121.131C155.972 121.131 154.667 121.344 153.28 122.09C151.685 122.947 151.742 125.286 151.742 125.286M151.742 125.286C151.742 125.286 145.608 126.173 143.28 128.482C140.952 130.791 140.207 135.833 140.207 135.833M140.207 135.833L174.821 136.152M140.207 135.833C140.207 135.833 140.156 135.857 140.059 135.906M174.821 136.152C174.821 136.152 174.863 136.175 174.942 136.221" stroke="black" stroke-width="3"/>
<path d="M174.424 136.222C174.424 136.222 197.5 151.606 197.5 178.528C197.5 205.45 178.442 214.679 157.883 214.68C137.323 214.681 117.5 208.527 117.5 178.528C117.5 148.529 139.81 135.838 139.81 135.838L174.424 136.222Z" fill="url(#paint1_linear_1454_9026)"/>
<path d="M174.424 136.222C174.424 136.222 197.5 151.606 197.5 178.528C197.5 205.45 178.442 214.679 157.883 214.68C137.323 214.681 117.5 208.527 117.5 178.528C117.5 148.529 139.81 135.838 139.81 135.838M174.424 136.222C174.424 136.222 174.421 136.122 174.411 135.94M174.424 136.222L139.81 135.838M139.81 135.838C139.81 135.838 139.827 135.699 139.864 135.453" stroke="black" stroke-width="3"/>
<path d="M181.729 209.137V246.827" stroke="black" stroke-width="3"/>
<circle cx="181.729" cy="253.219" r="5.42887" stroke="black" stroke-width="3.46256"/>
</g>
<defs>
<filter id="filter0_f_1454_9026" x="-54.015" y="-22.015" width="423.03" height="423.03" filterUnits="userSpaceOnUse" color-interpolation-filters="sRGB">
<feFlood flood-opacity="0" result="BackgroundImageFix"/>
<feBlend mode="normal" in="SourceGraphic" in2="BackgroundImageFix" result="shape"/>
<feGaussianBlur stdDeviation="41.0075" result="effect1_foregroundBlur_1454_9026"/>
</filter>
<radialGradient id="paint0_radial_1454_9026" cx="0" cy="0" r="1" gradientTransform="matrix(-0.250607 141.216 -141.215 -0.500079 158.178 190.178)" gradientUnits="userSpaceOnUse">
<stop offset="0.254594" stop-color="#FFB331"/>
<stop offset="1" stop-color="#FFB331" stop-opacity="0"/>
</radialGradient>
<linearGradient id="paint1_linear_1454_9026" x1="157.5" y1="135.453" x2="157.5" y2="214.68" gradientUnits="userSpaceOnUse">
<stop stop-color="#FFF3E0"/>
<stop offset="1" stop-color="#FB8800"/>
</linearGradient>
<clipPath id="clip0_1454_9026">
<rect width="315" height="350" fill="white"/>
</clipPath>
</defs>
</svg>
